<?xml version="1.0" encoding="utf-8"?>
<!-- Generator: Adobe Illustrator 23.0.3, SVG Export Plug-In . SVG Version: 6.00 Build 0)  -->
<svg version="1.1" id="Capa_1" xmlns="http://www.w3.org/2000/svg" xmlns:xlink="http://www.w3.org/1999/xlink" x="0px" y="0px"
	 viewBox="0 0 60 60" style="enable-background:new 0 0 60 60;" xml:space="preserve">
<style type="text/css">
	.st0{fill:#F3C620;}
	.st1{fill:#020203;}
</style>
<g>
	<g>
		<g>
			<path class="st0" d="M0.65,42.36c2.64-3.7,13.5,2.93,13.5,2.93S-0.93,34.55,1.71,31.44c2.64-3.11,16.88,6,16.88,6
				S0.24,23.87,3.41,20.47c3.17-3.4,21.18,10.15,21.18,10.15s-13.2-11.09-9.86-14.32c2.01-1.94,21.21,9.24,28.49,14.78
				c1.44-0.75,13.7-10.08,15.88-5.52s-6.42,17.27-6.42,17.27L52.01,60H20.04l-0.17-1.49C19.87,58.51-1.99,46.05,0.65,42.36z"/>
		</g>
	</g>
	<g>
		<g>
			<path class="st1" d="M13.92,48.36c-0.04,0-0.09-0.01-0.13-0.02c-0.21-0.07-0.32-0.3-0.25-0.51c3.01-8.74,7.55-15.16,13.86-19.63
				c0.18-0.13,0.43-0.08,0.55,0.09c0.13,0.18,0.08,0.43-0.09,0.55c-6.17,4.37-10.61,10.66-13.57,19.24
				C14.24,48.26,14.09,48.36,13.92,48.36z"/>
		</g>
	</g>
</g>
</svg>
