<?xml version="1.0" encoding="utf-8"?>
<!-- Generator: Adobe Illustrator 23.0.3, SVG Export Plug-In . SVG Version: 6.00 Build 0)  -->
<svg version="1.1" id="Capa_1" xmlns="http://www.w3.org/2000/svg" xmlns:xlink="http://www.w3.org/1999/xlink" x="0px" y="0px"
	 viewBox="0 0 60 60" style="enable-background:new 0 0 60 60;" xml:space="preserve">
<style type="text/css">
	.st0{fill:#F3C620;}
	.st1{fill:#020203;}
</style>
<g>
	<g>
		<path class="st0" d="M57.97,16.88c0,0-32.41-4.27-41.46,0C7.47,21.15,0.21,37.16,14,42.95l0.26,0.57c0,0-1.58,6.03,6.41,8.09
			c5.04,1.3,8-3.45,8-3.45l-0.42,0c1.69-0.03,2.99-0.36,2.99-0.36l0.45,0.66c3.33,4.92,16.23,3,15.64-2.79l10.65-1.2V16.88z"/>
	</g>
	<g>
		<g>
			<path class="st1" d="M21.42,46.38c-1.91,0-4.78-0.44-6.54-2.76c-2.93-3.86,0.71-10.51,0.86-10.79c0.1-0.18,0.33-0.25,0.52-0.15
				c0.18,0.1,0.25,0.33,0.15,0.52c-0.04,0.06-3.55,6.5-0.92,9.96c1.68,2.22,4.5,2.55,6.56,2.44c0.21-0.01,0.39,0.15,0.4,0.36
				c0.01,0.21-0.15,0.39-0.36,0.4C21.88,46.37,21.66,46.38,21.42,46.38z"/>
		</g>
		<g>
			<path class="st1" d="M27.96,48.55c-2.14,0-4.8-0.49-6.39-2.59c-2.93-3.86,0.7-10.51,0.86-10.79c0.1-0.18,0.33-0.25,0.52-0.15
				c0.18,0.1,0.25,0.33,0.15,0.52c-0.04,0.06-3.55,6.5-0.92,9.96c2.63,3.46,8.9,1.94,8.97,1.93c0.2-0.05,0.41,0.07,0.46,0.28
				c0.05,0.2-0.07,0.41-0.28,0.46C31.2,48.2,29.76,48.55,27.96,48.55z"/>
		</g>
		<g>
			<path class="st1" d="M47.32,46.06c-0.19,0-0.36-0.15-0.38-0.34c-0.55-5.33-5.74-4.87-5.96-4.85c-0.21,0.02-0.4-0.13-0.42-0.34
				c-0.02-0.21,0.13-0.4,0.34-0.42c0.06-0.01,6.17-0.56,6.79,5.53c0.02,0.21-0.13,0.4-0.34,0.42
				C47.35,46.06,47.34,46.06,47.32,46.06z"/>
		</g>
		<g>
			<path class="st1" d="M31.23,48.18c-0.12,0-0.24-0.06-0.32-0.17c-3.44-5.09,0.42-10.51,0.46-10.56c0.12-0.17,0.36-0.21,0.53-0.08
				c0.17,0.12,0.21,0.36,0.08,0.53c-0.04,0.05-3.59,5.05-0.45,9.69c0.12,0.17,0.07,0.41-0.1,0.53
				C31.38,48.16,31.31,48.18,31.23,48.18z"/>
		</g>
		<g>
			<path class="st1" d="M43.53,41.17c-0.01,0-0.02,0-0.03,0c-0.21-0.02-0.37-0.2-0.35-0.41l0.23-3.11c0.02-0.21,0.19-0.37,0.41-0.35
				c0.21,0.02,0.37,0.2,0.35,0.41l-0.23,3.11C43.89,41.02,43.73,41.17,43.53,41.17z"/>
		</g>
	</g>
</g>
</svg>
