<?xml version="1.0" encoding="utf-8"?>
<!-- Generator: Adobe Illustrator 23.0.3, SVG Export Plug-In . SVG Version: 6.00 Build 0)  -->
<svg version="1.1" id="Capa_1" xmlns="http://www.w3.org/2000/svg" xmlns:xlink="http://www.w3.org/1999/xlink" x="0px" y="0px"
	 viewBox="0 0 60 60" style="enable-background:new 0 0 60 60;" xml:space="preserve">
<style type="text/css">
	.st0{fill:#F3C620;}
	.st1{fill:#020203;}
</style>
<g>
	<g>
		<path class="st0" d="M15.06,34.17L15.06,34.17c0.08-14.4,0.62-30.98,3.43-31.03c4.96-0.09,8.17,20.4,8.17,20.4
			S32.64,0.49,37.6,0.67c2.48,0.09,2.11,7.2,1.17,13.05l0,0c0.73-0.14,1.5-0.06,2.32,0.28c2.56,1.07,3.27,5.12,3.27,5.12l-0.37,0.69
			c1.3-0.82,3.05-1.02,5.18-0.04c5.62,2.58,3.22,10.53,3.22,10.53l-2.2,29.03H15.14l-0.47-5.2C9.88,47.9,10.47,39.55,15.06,34.17z"
			/>
	</g>
	<g>
		<g>
			<path class="st1" d="M22.79,24.68c-0.2,0-0.38-0.15-0.42-0.35c-0.04-0.23,0.12-0.45,0.35-0.49c3.33-0.57,6.76-0.66,10.19-0.26
				c0.23,0.03,0.4,0.24,0.37,0.47c-0.03,0.23-0.24,0.4-0.47,0.37c-3.35-0.38-6.69-0.3-9.95,0.26
				C22.84,24.67,22.82,24.68,22.79,24.68z"/>
		</g>
		<g>
			<path class="st1" d="M44.66,30.33c-0.54,0-1.08-0.16-1.6-0.49c-2.55-1.59-2.72-5.52-1.29-8.19c1.2-2.22,3.81-3.99,7.58-2.26
				c0.21,0.1,0.31,0.35,0.21,0.56c-0.1,0.21-0.35,0.31-0.56,0.21c-2.74-1.26-5.16-0.55-6.48,1.89c-1.23,2.29-1.13,5.75,0.99,7.07
				c0.56,0.35,1.1,0.44,1.66,0.29c1.46-0.4,2.48-2.3,2.49-2.32c0.11-0.21,0.37-0.29,0.57-0.18c0.21,0.11,0.29,0.37,0.18,0.57
				c-0.05,0.09-1.21,2.25-3.02,2.74C45.14,30.3,44.9,30.33,44.66,30.33z"/>
		</g>
		<g>
			<path class="st1" d="M36.35,29.32c-0.43,0-0.87-0.11-1.31-0.35c-2.99-1.68-2.84-7.42-0.84-11.52c1.73-3.53,4.36-4.97,7.05-3.84
				c0.22,0.09,0.32,0.34,0.23,0.56c-0.09,0.22-0.34,0.32-0.56,0.23c-3.21-1.34-5.23,1.95-5.96,3.43c-1.8,3.67-1.97,9.02,0.49,10.41
				c2.43,1.37,5.45-3.59,5.48-3.64c0.12-0.2,0.38-0.27,0.58-0.14c0.2,0.12,0.27,0.38,0.14,0.58C41.55,25.22,39.05,29.32,36.35,29.32
				z"/>
		</g>
		<g>
			<path class="st1" d="M38.65,49.72c-0.19,0-0.37-0.13-0.41-0.33c-2.34-10.54-12.1-10.7-12.51-10.7c-0.23,0-0.42-0.19-0.42-0.43
				c0-0.23,0.19-0.42,0.42-0.42c0,0,0,0,0,0c0.11,0,10.84,0.15,13.34,11.37c0.05,0.23-0.09,0.46-0.32,0.51
				C38.71,49.72,38.68,49.72,38.65,49.72z"/>
		</g>
		<g>
			<path class="st1" d="M23.48,40.64c-0.12,0-0.25-0.05-0.33-0.16c-0.15-0.18-0.12-0.45,0.06-0.6c2.03-1.65,7.15-6.52,6.44-9.12
				c-0.16-0.57-0.47-0.99-0.96-1.26c-1.14-0.63-3.23-0.51-6.23,0.37c-2.74,0.81-5.15,2.35-6.99,4.46c-0.15,0.18-0.42,0.2-0.6,0.04
				c-0.18-0.15-0.2-0.42-0.04-0.6c1.94-2.23,4.49-3.86,7.39-4.71c3.27-0.96,5.52-1.06,6.88-0.3c0.69,0.38,1.15,0.98,1.37,1.77
				c1.01,3.67-6.4,9.75-6.72,10C23.67,40.6,23.58,40.64,23.48,40.64z"/>
		</g>
	</g>
</g>
</svg>
